<svg width="1193" height="179" viewBox="0 0 1193 179" fill="none" xmlns="http://www.w3.org/2000/svg">
<g clip-path="url(#clip0_7641_529)">
<path d="M479.062 179H505.88V20.8199L501.629 5.83972H509.15L575.211 179H635.406L701.466 5.83972H709.315L704.737 20.8199V179H731.552V0H703.497C688.076 0 674.236 9.70539 668.641 24.4422L612.185 173.16H598.43L542.279 24.5023C536.701 9.73393 522.845 0 507.401 0H479.062V179Z" fill="#101726"/>
<path d="M1161.7 179L1099.23 120.325C1089.67 107.763 1089.91 89.6218 1099.23 76.8692L1161.7 0H1192.12L1115.74 91.3961V106.685L1192.12 179H1161.7Z" fill="#101726"/>
<path d="M987.188 179H1017.93L1078.56 103.815C1088.29 89.9622 1088.62 70.419 1078.56 56.8185L1017.93 0H987.188L1063.57 72.0616V87.35L987.188 179Z" fill="#101726"/>
<path d="M201.19 179H229.841L165.461 34.1896C156.864 13.4585 137.021 0 115.053 0C93.1162 0 73.2953 13.4204 64.6778 34.1077L0 179H28.9777L102.432 18.2512H127.409L201.19 179Z" fill="#101726"/>
<path d="M953.284 179H981.934L917.555 34.1896C908.957 13.4585 889.114 0 867.146 0C845.21 0 825.389 13.4204 816.772 34.1077L752.094 179H781.072L854.526 18.2512H879.502L953.284 179Z" fill="#101726"/>
<path fill-rule="evenodd" clip-rule="evenodd" d="M252.922 179H279.739V120.172H368.18C365.257 120.328 371.358 120.248 368.18 120.172C378.19 119.637 388.187 120.632 395.462 117.878C440.303 103.143 443.004 71.6068 443.004 58.6873C443.004 40.4003 433.458 0 370.341 0H252.922V179ZM279.739 17.773V100.453H370.341C409.585 100.453 417.251 69.6113 417.251 58.6873C417.251 47.5095 409.585 17.773 370.341 17.773H279.739Z" fill="#101726"/>
<path d="M409.726 178.997H438.376L395.462 117.875C388.187 120.629 378.19 119.634 368.18 120.169L409.726 178.997Z" fill="#101726"/>
</g>
<defs>
<clipPath id="clip0_7641_529">
<rect width="1193" height="179" fill="white"/>
</clipPath>
</defs>
</svg>
