<svg width="1193" height="179" viewBox="0 0 1193 179" fill="none" xmlns="http://www.w3.org/2000/svg">
<path d="M479.06 179H505.877V20.8199L501.626 5.83972H509.147L575.208 179H635.403L701.463 5.83972H709.312L704.734 20.8199V179H731.55V0H703.494C688.073 0 674.233 9.70539 668.638 24.4422L612.183 173.16H598.428L542.276 24.5023C536.698 9.73393 522.842 0 507.398 0H479.06V179Z" fill="black"/>
<path d="M1161.7 179L1099.23 120.325C1089.67 107.763 1089.91 89.6218 1099.23 76.8692L1161.7 0H1192.12L1115.74 91.3961V106.685L1192.12 179H1161.7Z" fill="black"/>
<path d="M987.184 179H1017.93L1078.56 103.815C1088.29 89.9622 1088.62 70.419 1078.56 56.8185L1017.93 0H987.184L1063.57 72.0616V87.35L987.184 179Z" fill="black"/>
<path d="M201.19 179H229.841L165.461 34.1896C156.864 13.4585 137.021 0 115.053 0C93.1162 0 73.2953 13.4204 64.6778 34.1077L0 179H28.9777L102.432 18.2512H127.409L201.19 179Z" fill="black"/>
<path d="M953.285 179H981.935L917.556 34.1896C908.958 13.4585 889.115 0 867.147 0C845.211 0 825.39 13.4204 816.773 34.1077L752.095 179H781.073L854.527 18.2512H879.503L953.285 179Z" fill="black"/>
<path fill-rule="evenodd" clip-rule="evenodd" d="M252.922 179H279.739V120.172H368.18C365.257 120.328 371.358 120.248 368.18 120.172C378.19 119.637 388.187 120.632 395.462 117.878C440.303 103.143 443.004 71.6068 443.004 58.6873C443.004 40.4003 433.458 0 370.341 0H252.922V179ZM279.739 17.773V100.453H370.341C409.585 100.453 417.251 69.6113 417.251 58.6873C417.251 47.5095 409.585 17.773 370.341 17.773H279.739Z" fill="black"/>
<path d="M409.726 179H438.376L395.462 117.878C388.187 120.632 378.19 119.637 368.18 120.172L409.726 179Z" fill="black"/>
</svg>
